<svg width="18" height="18" viewBox="0 0 18 18" fill="none" xmlns="http://www.w3.org/2000/svg">
<path d="M8.69186 3.59229H11.3133C11.5816 3.59229 11.8393 3.70002 12.0294 3.89013L13.4637 5.32444C13.6539 5.51456 13.7616 5.77227 13.7616 6.04054V10.6899C13.7616 11.2497 13.3074 11.7039 12.7477 11.7039H8.69186C8.13208 11.7039 7.67792 11.2497 7.67792 10.6899V4.60623C7.67792 4.04645 8.13208 3.59229 8.69186 3.59229ZM5.31204 6.29614H7.00195V7.64807H5.65002V13.0558H9.70581V12.3798H11.0577V13.3938C11.0577 13.9536 10.6036 14.4077 10.0438 14.4077H5.31204C4.75226 14.4077 4.2981 13.9536 4.2981 13.3938V7.31009C4.2981 6.75031 4.75226 6.29614 5.31204 6.29614Z" fill="black"/>
</svg>
