<svg width="13" height="15" viewBox="0 0 13 15" fill="none" xmlns="http://www.w3.org/2000/svg">
<path d="M3.21667 1.31018V2.18677H1.90179C1.17587 2.18677 0.586914 2.77573 0.586914 3.50165V4.81653H12.8591V3.50165C12.8591 2.77573 12.2702 2.18677 11.5443 2.18677H10.2294V1.31018C10.2294 0.825319 9.83765 0.433594 9.35278 0.433594C8.86792 0.433594 8.4762 0.825319 8.4762 1.31018V2.18677H4.96985V1.31018C4.96985 0.825319 4.57812 0.433594 4.09326 0.433594C3.6084 0.433594 3.21667 0.825319 3.21667 1.31018ZM12.8591 5.69312H0.586914V13.1441C0.586914 13.87 1.17587 14.459 1.90179 14.459H11.5443C12.2702 14.459 12.8591 13.87 12.8591 13.1441V5.69312Z" fill="black"/>
</svg>
