<svg width="18" height="18" viewBox="0 0 18 18" fill="none" xmlns="http://www.w3.org/2000/svg">
<path d="M6.06601 3.62403C5.651 3.62403 5.31401 3.96102 5.31401 4.37604C5.31401 4.79105 5.651 5.12804 6.06601 5.12804L6.3781 5.12804L6.37644 14.3762C6.37644 14.9739 6.61383 15.5466 7.03715 15.9699L7.12845 16.0612C8.00828 16.941 9.43593 16.941 10.3158 16.0612L10.4071 15.9699C10.8304 15.5466 11.0678 14.9739 11.0678 14.3762L11.0678 5.12638L11.3799 5.12638C11.7949 5.12638 12.1319 4.78939 12.1319 4.37438C12.1319 3.95936 11.7949 3.62237 11.3799 3.62237L10.3174 3.62237L7.13011 3.62237L6.06767 3.62237L6.06601 3.62403ZM7.88046 9.997L7.88046 5.12638L9.56376 5.12638L9.56376 9.997H7.88046Z" fill="black"/>
</svg>
